<svg width="72" height="106" viewBox="0 0 72 106" fill="none" xmlns="http://www.w3.org/2000/svg">
<g clip-path="url(#clip0)">
<path d="M50.565 46.6418C50.4758 46.6418 50.4089 46.6418 50.3196 46.6418C41.5092 46.4639 35.1301 42.8624 34.8624 42.7068C34.3494 42.4178 34.1709 41.7508 34.4609 41.2395C34.7509 40.7282 35.42 40.5503 35.933 40.8393C36.0445 40.906 42.1784 44.3297 50.3643 44.5075C56.1189 44.6187 63.8364 39.5499 63.9033 39.5054C64.394 39.172 65.0631 39.3054 65.3977 39.7945C65.7323 40.2835 65.5985 40.9505 65.1077 41.284C64.7732 41.5063 56.9442 46.6418 50.565 46.6418Z" fill="#231F20"/>
<path d="M28.2824 95.0843C19.2267 95.0843 11.8661 89.7043 11.8661 83.0793H11.7769V56.4237H44.6988V83.0793C44.6988 89.7043 37.3605 95.0843 28.2824 95.0843Z" fill="#FF4527"/>
<path d="M39.7473 59.7139L39.9704 81.901C39.9704 88.526 32.6321 93.906 23.554 93.906C22.5726 93.906 21.6135 93.8393 20.699 93.7282C22.9741 94.5952 25.5614 95.0843 28.3049 95.0843C37.3607 95.0843 44.7213 89.7043 44.7213 83.0793V56.4237L39.7473 59.7139Z" fill="#DB3423"/>
<path d="M28.2824 17.7852C19.2267 17.7852 11.7769 23.1653 11.7769 29.7903V56.4459C11.7769 56.4459 14.6542 60.7588 28.2378 61.2479C41.2192 61.7148 44.6988 56.4459 44.6988 56.4459V29.768C44.6988 23.143 37.3605 17.7852 28.2824 17.7852Z" fill="#EDEDED"/>
<path d="M28.2825 17.7852C27.3903 17.7852 26.5204 17.8297 25.6729 17.9408C33.6357 18.9857 39.7472 25.255 39.7472 32.8582V59.7362C43.4721 58.3133 44.6989 56.4459 44.6989 56.4459V29.768C44.6989 23.143 37.3606 17.7852 28.2825 17.7852Z" fill="#D8D8D8"/>
<path d="M23.9777 20.6309C23.8884 20.253 23.487 20.0084 23.1078 19.8973C21.368 19.3637 19.9628 20.6087 18.6245 21.5424C17.0855 22.6317 15.8141 24.1212 14.9888 25.8108C14.7435 26.3222 14.5427 26.8557 14.5427 27.3893C14.5427 27.9451 14.7881 28.5231 15.2565 28.8121C15.2565 28.8121 16.2602 29.6791 18.513 26.211C19.2937 25.0105 19.9851 23.6988 21.2342 22.9874C22.0818 22.4983 23.1301 22.2093 23.71 21.4312C23.9108 21.2089 24.0223 20.9199 23.9777 20.6309Z" fill="white"/>
<path d="M13.6282 31.6132C13.5167 31.9912 13.5167 32.3913 13.539 32.7693C13.5836 33.4362 13.6728 34.1032 13.8067 34.7701C13.8513 34.9924 13.8959 35.237 14.0743 35.4148C14.2974 35.6594 14.6989 35.6816 15.0111 35.5482C15.3234 35.4148 15.5464 35.1258 15.7026 34.8368C16.1041 34.1254 16.1933 33.2806 16.2602 32.4803C16.3048 32.0356 16.3271 31.5465 16.1264 31.1464C15.5464 29.9236 13.9405 30.6128 13.6282 31.6132Z" fill="white"/>
<path d="M20.7212 42.151C20.7658 42.0621 20.8104 41.9954 20.8773 41.9287C20.855 41.9509 20.855 41.9732 20.8327 41.9732C20.9219 41.8398 21.0335 41.7508 21.1673 41.6397C21.145 41.6619 21.1227 41.6619 21.1227 41.6841C21.2342 41.5952 21.3457 41.5285 21.4572 41.4841C21.5019 41.4618 21.5688 41.3951 21.5688 41.3284C21.5911 41.2617 21.5688 41.1951 21.5465 41.1284C21.5019 41.0839 21.4572 41.0172 21.3903 41.0172C21.3234 40.995 21.2565 41.0172 21.1896 41.0394C20.8104 41.2173 20.4758 41.5285 20.2751 41.8842C20.2082 41.9954 20.2528 42.1732 20.3643 42.2399C20.4981 42.3066 20.6543 42.2844 20.7212 42.151Z" fill="#231F20"/>
<path d="M5.01859 34.7924H32.9219C35.6877 34.7924 37.9405 37.0377 37.9405 39.7945V83.6351C37.9405 84.7689 37.5613 85.8582 36.8476 86.7475L22.9071 104.11C20.8996 106.622 17.0632 106.6 15.0781 104.088L1.09294 86.5474C0.379182 85.6581 0 84.5688 0 83.435V39.7945C0 37.0377 2.25279 34.7924 5.01859 34.7924Z" fill="#3E7287"/>
<path d="M8.52041 39.2164H29.3977C31.4721 39.2164 33.1449 41.1061 33.1449 43.4182V80.3226C33.1449 81.2785 32.855 82.2122 32.3197 82.9459L21.9033 97.552C20.4089 99.664 17.5316 99.664 16.0371 97.5298L5.57617 82.7903C5.04085 82.0566 4.77319 81.1229 4.77319 80.1669V43.4182C4.77319 41.1061 6.44606 39.2164 8.52041 39.2164Z" fill="#4A85A3"/>
<path d="M4.19323 48.0201C4.19323 48.8871 3.50178 49.5763 2.63189 49.5763C1.76201 49.5763 1.07056 48.8871 1.07056 48.0201C1.07056 47.1531 1.76201 46.4639 2.63189 46.4639C3.47948 46.4639 4.19323 47.1531 4.19323 48.0201Z" fill="#4A85A3"/>
<path d="M21.0782 36.9933C21.0782 37.8603 20.3868 38.5495 19.5169 38.5495C18.647 38.5495 17.9556 37.8603 17.9556 36.9933C17.9556 36.1263 18.647 35.4371 19.5169 35.4371C20.3868 35.4371 21.0782 36.1263 21.0782 36.9933Z" fill="#4A85A3"/>
<path d="M11.3978 36.9933C11.3978 37.8603 10.7064 38.5495 9.83649 38.5495C8.9666 38.5495 8.27515 37.8603 8.27515 36.9933C8.27515 36.1263 8.9666 35.4371 9.83649 35.4371C10.6841 35.4371 11.3978 36.1263 11.3978 36.9933Z" fill="#4A85A3"/>
<path d="M30.5131 36.9933C30.5131 37.8603 29.8216 38.5495 28.9517 38.5495C28.0818 38.5495 27.3904 37.8603 27.3904 36.9933C27.3904 36.1263 28.0818 35.4371 28.9517 35.4371C29.8216 35.4371 30.5131 36.1263 30.5131 36.9933Z" fill="#4A85A3"/>
<path d="M4.19323 61.8926C4.19323 62.7596 3.50178 63.4488 2.63189 63.4488C1.76201 63.4488 1.07056 62.7596 1.07056 61.8926C1.07056 61.0256 1.76201 60.3364 2.63189 60.3364C3.47948 60.3364 4.19323 61.0478 4.19323 61.8926Z" fill="#4A85A3"/>
<path d="M4.19323 75.7873C4.19323 76.6543 3.50178 77.3435 2.63189 77.3435C1.76201 77.3435 1.07056 76.6543 1.07056 75.7873C1.07056 74.9203 1.76201 74.2311 2.63189 74.2311C3.47948 74.2311 4.19323 74.9203 4.19323 75.7873Z" fill="#4A85A3"/>
<path d="M7.29357 87.859C7.29357 88.7261 6.60213 89.4153 5.73224 89.4153C4.86235 89.4153 4.1709 88.7261 4.1709 87.859C4.1709 86.992 4.86235 86.3028 5.73224 86.3028C6.60213 86.3028 7.29357 86.992 7.29357 87.859Z" fill="#4A85A3"/>
<path d="M34.0372 87.859C34.0372 88.7261 33.3458 89.4153 32.4759 89.4153C31.606 89.4153 30.9146 88.7261 30.9146 87.859C30.9146 86.992 31.606 86.3028 32.4759 86.3028C33.3458 86.3028 34.0372 86.992 34.0372 87.859Z" fill="#4A85A3"/>
<path d="M13.6952 96.4182C13.6952 97.2852 13.0037 97.9744 12.1338 97.9744C11.264 97.9744 10.5725 97.2852 10.5725 96.4182C10.5725 95.5512 11.264 94.862 12.1338 94.862C13.0037 94.862 13.6952 95.5734 13.6952 96.4182Z" fill="#4A85A3"/>
<path d="M27.6134 96.0847C27.6134 96.9518 26.9219 97.6409 26.0521 97.6409C25.1822 97.6409 24.4907 96.9518 24.4907 96.0847C24.4907 95.2177 25.1822 94.5285 26.0521 94.5285C26.9219 94.5285 27.6134 95.2177 27.6134 96.0847Z" fill="#4A85A3"/>
<path d="M20.5204 102.576C20.5204 103.443 19.8289 104.132 18.959 104.132C18.0892 104.132 17.3977 103.443 17.3977 102.576C17.3977 101.709 18.0892 101.02 18.959 101.02C19.8289 101.02 20.5204 101.709 20.5204 102.576Z" fill="#4A85A3"/>
<path d="M37.1598 48.0201C37.1598 48.8871 36.4683 49.5763 35.5984 49.5763C34.7286 49.5763 34.0371 48.8871 34.0371 48.0201C34.0371 47.1531 34.7286 46.4639 35.5984 46.4639C36.4683 46.4639 37.1598 47.1531 37.1598 48.0201Z" fill="#4A85A3"/>
<path d="M37.1598 61.8926C37.1598 62.7596 36.4683 63.4488 35.5984 63.4488C34.7286 63.4488 34.0371 62.7596 34.0371 61.8926C34.0371 61.0256 34.7286 60.3364 35.5984 60.3364C36.4683 60.3364 37.1598 61.0478 37.1598 61.8926Z" fill="#4A85A3"/>
<path d="M37.1598 75.7873C37.1598 76.6543 36.4683 77.3435 35.5984 77.3435C34.7286 77.3435 34.0371 76.6543 34.0371 75.7873C34.0371 74.9203 34.7286 74.2311 35.5984 74.2311C36.4683 74.2311 37.1598 74.9203 37.1598 75.7873Z" fill="#4A85A3"/>
<path opacity="0.17" d="M9.12277 43.2849C7.896 44.4187 7.44991 46.1305 7.18225 47.7534C6.89229 49.5319 6.78076 51.3104 6.84768 53.1112C6.89229 54.0672 7.04842 55.1565 7.85139 55.6678C8.63206 56.1569 9.7027 55.8457 10.3272 55.1787C10.9518 54.5118 11.1971 53.5781 11.2863 52.6888C11.4202 51.4661 11.3533 50.2211 11.4871 48.9984C11.6209 47.7756 12.0447 46.5084 12.9592 45.6859C13.9183 44.8411 15.2566 44.5743 16.528 44.3964C17.3086 44.2853 18.2901 44.0185 18.4016 43.2404C18.5131 42.5068 17.7101 41.9287 16.9741 41.8398C14.5651 41.573 11.0187 41.5286 9.12277 43.2849Z" fill="white"/>
<path opacity="0.17" d="M7.96281 59.2249C7.51671 60.003 7.42749 60.9367 7.42749 61.8482C7.42749 62.8708 7.51671 63.9157 7.69515 64.9161C7.78437 65.3608 7.87359 65.8054 8.11894 66.1611C8.36429 66.5391 8.78808 66.8058 9.23418 66.7614C9.99254 66.6947 10.3494 65.8054 10.5056 65.0718C10.7955 63.5378 11.2416 60.7588 10.5056 59.2916C9.94793 58.1355 8.69887 57.9354 7.96281 59.2249Z" fill="white"/>
<path d="M18.156 28.4564C18.2229 28.5008 24.8028 31.5688 24.8028 31.5688L25.6727 30.1904L19.2712 26.5445L18.156 28.4564Z" fill="#231F20"/>
<path d="M35.7545 28.4564C35.6876 28.5008 29.1077 31.5688 29.1077 31.5688L28.2378 30.1904L34.6393 26.5445L35.7545 28.4564Z" fill="#231F20"/>
<path d="M22.2155 32.5247C22.2155 33.3695 21.5241 34.0587 20.6765 34.0587C19.8289 34.0587 19.1375 33.3695 19.1375 32.5247C19.1375 31.6799 19.8289 30.9908 20.6765 30.9908C21.5241 30.9685 22.2155 31.6577 22.2155 32.5247Z" fill="#231F20"/>
<path d="M20.2528 32.458C19.9851 32.5692 19.6728 32.4136 19.5613 32.1468C19.4498 31.88 19.6059 31.5687 19.8736 31.4576C20.1412 31.3464 20.4535 31.502 20.565 31.7688C20.6766 32.0578 20.5204 32.3691 20.2528 32.458Z" fill="white"/>
<path d="M34.394 33.1917C34.394 34.0365 33.7025 34.7257 32.855 34.7257C32.0074 34.7257 31.3159 34.0365 31.3159 33.1917C31.3159 32.3469 32.0074 31.6577 32.855 31.6577C33.7025 31.6355 34.394 32.3247 34.394 33.1917Z" fill="#231F20"/>
<path d="M32.4534 33.125C32.1858 33.2361 31.8735 33.0805 31.762 32.8137C31.6505 32.5469 31.8066 32.2357 32.0743 32.1245C32.3419 32.0134 32.6542 32.169 32.7657 32.4358C32.8549 32.7248 32.7211 33.0138 32.4534 33.125Z" fill="white"/>
<path d="M17.777 16.1845C20.0521 15.8288 22.3272 15.4731 24.6246 15.5176C28.3495 15.6065 32.0298 16.7625 35.7324 16.3179C37.0261 16.1623 38.409 15.7177 39.6134 16.2512C40.0818 16.4513 40.6172 16.9404 40.6172 17.3406C40.6172 17.6518 40.2826 18.0964 40.0595 18.341C38.9889 19.4526 37.4722 20.0083 35.9331 20.2751C33.1896 20.742 30.4015 20.364 27.6357 20.2307C25.3383 20.1195 23.0186 20.1862 20.7212 19.9194C20.0967 19.8527 19.4499 19.7416 18.9146 19.4526C18.1785 19.0524 17.7101 18.3632 17.264 17.674C17.0856 17.4073 16.7956 17.1405 16.8848 16.7848C16.974 16.3624 17.3978 16.2512 17.777 16.1845Z" fill="#515759"/>
<path d="M39.4573 4.09058C39.725 3.02346 39.8142 1.93412 39.9927 0.844773C40.0596 0.489068 40.1711 0.0889004 40.528 -2.58321e-05C40.7287 -0.0444889 40.9072 0.0444373 41.0856 0.155595C41.9109 0.689152 42.2454 1.73403 42.4239 2.71222C42.8254 5.091 42.6023 7.58093 41.7993 9.84855C41.1079 11.7827 39.9034 13.6279 38.0521 14.4949C37.4722 14.7617 36.8477 14.9173 36.2231 14.8729C34.6841 14.7173 32.2975 12.2718 33.3681 10.6489C33.7696 10.0486 34.6395 9.82632 35.2417 9.51508C36.2231 9.02598 37.0261 8.31457 37.7176 7.46977C38.5205 6.51382 39.1228 5.33555 39.4573 4.09058Z" fill="#6B7477"/>
<path d="M17.9555 4.17953C17.5763 3.15688 17.3978 2.06753 17.1079 1.00042C17.0187 0.666944 16.8625 0.266776 16.5056 0.222313C16.3049 0.200082 16.1265 0.311239 15.9703 0.422397C15.1897 1.04488 14.9666 2.11199 14.8997 3.09018C14.7213 5.51342 15.1674 7.95889 16.1934 10.1598C17.0633 12.005 18.4462 13.7613 20.3644 14.4505C20.9666 14.6506 21.6135 14.7617 22.2157 14.6506C23.7324 14.3616 25.8737 11.6938 24.6469 10.182C24.2008 9.62625 23.2863 9.49286 22.6618 9.22609C21.6358 8.82592 20.7659 8.20344 20.0075 7.42533C19.1376 6.49161 18.4016 5.40226 17.9555 4.17953Z" fill="#6B7477"/>
<path d="M17.5763 20.9644C17.5763 20.9644 22.7287 23.6322 28.5503 23.6322C34.9741 23.6322 40.3049 21.8536 40.3049 21.8536C40.3049 21.8536 39.3458 12.2941 36.067 8.73702C32.7882 5.17997 28.5726 3.5126 28.5726 3.5126C28.5726 3.5126 22.4834 6.33601 19.9629 10.7156C17.4202 15.0952 17.5763 20.9644 17.5763 20.9644Z" fill="#889499"/>
<path d="M16.8625 20.8087C16.8625 20.8087 21.502 24.1656 27.9927 24.0989C34.4834 24.0322 40.5949 22.0536 40.5949 22.0536V17.3628C40.5949 17.3628 34.3719 19.1858 28.7287 19.2969C23.0856 19.4081 16.8625 16.807 16.8625 16.807V20.8087Z" fill="#6B7477"/>
<path d="M24.7139 3.53478L27.0782 20.453H31.16L32.6544 3.53478C32.6544 3.53478 30.4016 2.68999 28.2826 2.75668C26.186 2.80114 24.7139 3.53478 24.7139 3.53478Z" fill="#6B7477"/>
<path d="M29.844 5.06879C29.844 5.66904 29.3533 6.18037 28.7288 6.18037C28.1265 6.18037 27.6135 5.69127 27.6135 5.06879C27.6135 4.44631 28.1042 3.95721 28.7288 3.95721C29.3533 3.97945 29.844 4.46854 29.844 5.06879Z" fill="#889499"/>
<path d="M30.0447 9.1594C30.0447 9.75965 29.554 10.271 28.9295 10.271C28.3272 10.271 27.8142 9.78188 27.8142 9.1594C27.8142 8.55915 28.3049 8.04782 28.9295 8.04782C29.554 8.07005 30.0447 8.55915 30.0447 9.1594Z" fill="#889499"/>
<path d="M30.1563 13.539C30.1563 14.1392 29.6656 14.6506 29.041 14.6506C28.4388 14.6506 27.9258 14.1615 27.9258 13.539C27.9258 12.9387 28.4165 12.4274 29.041 12.4274C29.6656 12.4274 30.1563 12.9165 30.1563 13.539Z" fill="#889499"/>
<path opacity="0.3" d="M20.1413 12.6275C19.9852 13.0944 19.8737 13.6057 20.0298 14.0503C20.1859 14.5172 20.6989 14.8729 21.1673 14.7173C21.4796 14.6061 21.658 14.2727 21.7919 13.9836C21.9926 13.4946 22.0818 12.9832 22.2826 12.5164C22.6395 11.6938 23.2863 11.0491 23.9777 10.4711C24.3346 10.182 24.7138 9.84858 24.8476 9.40395C25.0261 8.75923 24.4908 8.27014 23.8885 8.44799C23.2863 8.62584 22.7064 9.02601 22.2157 9.42618C21.2566 10.2932 20.5428 11.427 20.1413 12.6275Z" fill="white"/>
<path d="M63.2118 33.9253L55.2043 15.8733L56.8103 7.44757L63.814 13.6502L67.4497 32.4803L63.2118 33.9253Z" fill="#889499"/>
<path d="M60.223 37.5936C59.1078 37.2601 59.1747 34.9702 59.7323 34.5256C60.2899 34.081 68.7658 30.8129 69.4795 31.1242C70.1933 31.4577 71.9777 33.2584 71.42 33.9698C70.8847 34.7257 62.1189 38.1494 60.223 37.5936Z" fill="#6B7477"/>
<path d="M64.1931 35.5705L66.5351 43.7739C66.5351 43.7739 67.4273 45.13 69.7693 44.1519C72.1113 43.1737 72.0221 41.862 72.0221 41.862L67.182 34.1699L64.1931 35.5705Z" fill="#6B7477"/>
<path d="M58.0371 10.8934C58.0371 11.2047 57.7917 14.1837 57.7917 14.1837L65.4423 33.9031C65.4423 33.9031 66.1337 33.7252 66.0668 33.5251C65.9999 33.3473 60.446 13.3389 60.446 13.3389L58.0371 10.8934Z" fill="#6B7477"/>
</g>
<defs>
<clipPath id="clip0">
<rect width="72" height="106" fill="white"/>
</clipPath>
</defs>
</svg>
