<svg width="161" height="300" viewBox="0 0 161 300" fill="none" xmlns="http://www.w3.org/2000/svg">
<g clip-path="url(#clip0)">
<path d="M26.4967 180.95C26.1403 180.95 25.7244 180.89 25.368 180.712C24.2986 180.237 -1.18813 169.021 0.0594754 147.537C0.653571 136.855 6.29748 128.546 16.2189 123.561C23.5263 119.881 30.596 119.347 30.8931 119.347C32.4971 119.229 33.8635 120.415 33.9824 122.018C34.1012 123.62 32.913 124.985 31.3089 125.104C30.2395 125.163 6.95099 127.3 5.7628 147.953C4.75283 165.46 27.3879 175.49 27.6255 175.549C29.0514 176.202 29.7643 177.863 29.1108 179.288C28.6355 180.297 27.5661 180.95 26.4967 180.95Z" fill="#231F20"/>
<path d="M160.05 50.8012C159.931 50.3264 159.574 50.2671 159.099 50.2671C158.505 50.2671 158.267 50.5045 158.267 51.0979C158.148 52.4036 158.089 53.7092 157.97 55.0148C157.673 53.0564 157.198 51.6321 156.485 49.7329C156.01 48.546 155 47.1217 153.812 47.5964C152.98 47.8932 152.742 48.9021 152.683 49.7923C152.564 51.0979 152.683 51.7507 152.92 52.997C149.772 51.6914 145.672 51.9881 143.474 54.5994C142.999 55.1929 142.583 55.905 142.643 56.6172C142.702 57.3887 143.237 58.1009 144.009 58.1602C144.603 58.1602 145.138 57.7448 145.672 57.5074C147.277 56.7359 149.296 57.5074 150.366 58.8724C151.198 59.9407 151.554 61.4837 151.138 62.7893C150.485 64.6291 148.227 65.638 146.326 65.0445C144.484 64.451 143.237 62.3739 143.474 60.4154C143.534 59.8813 143.653 59.3472 143.534 58.8131C143.237 57.6261 141.573 57.27 140.563 57.9229C139.553 58.5757 139.137 59.8813 139.078 61.1276C138.959 64.6884 141.336 67.8338 143.89 70.3264C146.445 72.819 149.415 75.0742 151.019 78.2196C152.445 81.0089 153.633 78.8131 154.524 76.7359C155.237 75.9644 155.772 75.0742 156.307 74.184C160.168 67.1217 162.367 58.5757 160.05 50.8012Z" fill="#231F20"/>
<path d="M96.125 126.706C94.7585 126.706 93.5109 125.697 93.2733 124.332C93.0357 122.789 94.0456 121.306 95.6497 121.068C95.8279 121.009 114.364 117.864 131.592 104.392C143.712 94.9555 151.019 71.5134 151.138 71.276C151.614 69.7923 153.218 68.9021 154.703 69.3769C156.188 69.8517 157.079 71.4541 156.604 72.9377C156.307 73.9466 148.643 98.3383 135.157 108.902C116.681 123.323 97.3726 126.588 96.6002 126.766C96.422 126.647 96.2438 126.706 96.125 126.706Z" fill="#231F20"/>
<path d="M126.067 295.668C125.116 295.668 124.166 295.193 123.631 294.303C123.156 293.531 111.809 274.599 105.749 259.466C99.7486 244.451 92.9759 221.068 92.8571 220.831C92.4412 219.288 93.2729 217.745 94.8176 217.27C96.3622 216.855 97.9069 217.685 98.3822 219.228C98.4416 219.466 105.155 242.552 111.036 257.329C116.918 271.988 128.384 291.157 128.503 291.335C129.335 292.7 128.859 294.481 127.493 295.252C127.077 295.549 126.602 295.668 126.067 295.668Z" fill="#231F20"/>
<path d="M50.3199 297.686C48.9535 297.686 47.7059 296.677 47.4682 295.252L34.6952 213.472C34.4575 211.929 35.5269 210.445 37.0716 210.208C38.6162 209.97 40.1014 211.039 40.3391 212.582L53.1716 294.362C53.4092 295.905 52.3398 297.389 50.7952 297.626C50.6169 297.626 50.4981 297.686 50.3199 297.686Z" fill="#231F20"/>
<path d="M70.4597 244.095C46.3394 244.095 26.7342 229.733 26.7342 212.047H26.4966V140.89H114.185V212.047C114.126 229.733 94.58 244.095 70.4597 244.095Z" fill="#FF4527"/>
<path d="M100.937 149.674L101.531 208.902C101.531 226.588 81.9853 240.95 57.8056 240.95C55.1916 240.95 52.637 240.771 50.2012 240.475C56.2609 242.789 63.1525 244.095 70.4598 244.095C94.5801 244.095 114.185 229.733 114.185 212.047V140.89L100.937 149.674Z" fill="#DB3423"/>
<path d="M70.4597 37.7448C46.3394 37.7448 26.4966 52.1068 26.4966 69.7923V140.95C26.4966 140.95 34.1604 152.463 70.3409 153.769C104.917 155.015 114.185 140.95 114.185 140.95V69.733C114.126 52.0475 94.58 37.7448 70.4597 37.7448Z" fill="#EDEDED"/>
<path d="M70.4597 37.7448C68.0833 37.7448 65.7664 37.8635 63.5088 38.1603C84.718 40.9496 100.996 57.6855 100.996 77.9822V149.733C110.918 145.935 114.185 140.95 114.185 140.95V69.733C114.126 52.0475 94.58 37.7448 70.4597 37.7448Z" fill="#D8D8D8"/>
<path d="M44.4382 60.2968C46.0423 56.8546 48.3592 53.5905 51.6862 51.6914C53.9437 50.3858 56.736 49.6143 58.2806 47.5371C58.7559 46.8843 59.1124 46.1128 58.9341 45.3413C58.6965 44.3324 57.6271 43.6796 56.6172 43.3828C51.9832 41.9585 48.2404 45.2819 44.6758 47.7745C40.5766 50.6825 37.1902 54.5994 35.0515 59.1692C34.398 60.5342 33.8633 61.9585 33.8633 63.3828C33.8633 64.8665 34.5168 66.4095 35.7644 67.1811L44.4382 60.2968Z" fill="white"/>
<path d="M31.3683 74.6587C31.0712 75.6676 31.0712 76.7359 31.1307 77.7448C31.2495 79.5252 31.4871 81.3056 31.8436 83.086C31.9624 83.6795 32.0812 84.3323 32.5565 84.8071C33.1506 85.4599 34.22 85.5193 35.0517 85.1632C35.8834 84.8071 36.4775 84.0356 36.8934 83.2641C37.9628 81.365 38.2004 79.1098 38.3786 76.9733C38.4974 75.7863 38.5569 74.4807 38.0222 73.4124C36.4775 70.1483 32.2 72.0474 31.3683 74.6587Z" fill="white"/>
<path d="M54.9537 81.9585C54.9537 84.9258 52.5179 87.359 49.5474 87.359C46.5769 87.359 44.1411 84.9258 44.1411 81.9585C44.1411 78.9911 46.5769 76.5579 49.5474 76.5579C52.5179 76.5579 54.9537 78.9318 54.9537 81.9585Z" fill="#231F20"/>
<path d="M49.5475 80.5935C49.5475 81.6024 48.7158 82.3739 47.7652 82.3739C46.7552 82.3739 45.9829 81.543 45.9829 80.5935C45.9829 79.5845 46.8146 78.813 47.7652 78.813C48.7752 78.813 49.5475 79.5845 49.5475 80.5935Z" fill="white"/>
<path d="M94.8179 81.9585C94.8179 84.9258 92.3821 87.359 89.4117 87.359C86.4412 87.359 84.0054 84.9258 84.0054 81.9585C84.0054 78.9911 86.4412 76.5579 89.4117 76.5579C92.3821 76.5579 94.8179 78.9318 94.8179 81.9585Z" fill="#231F20"/>
<path d="M89.4117 80.5935C89.4117 81.6024 88.58 82.3739 87.6295 82.3739C86.6195 82.3739 85.8472 81.543 85.8472 80.5935C85.8472 79.5845 86.6789 78.813 87.6295 78.813C88.6394 78.813 89.4117 79.5845 89.4117 80.5935Z" fill="white"/>
<path d="M69.3312 111.335C57.271 111.335 52.7559 104.273 52.5777 103.976C52.34 103.62 52.4588 103.086 52.8747 102.849C53.2312 102.611 53.7659 102.73 54.0035 103.145C54.1817 103.442 58.2216 109.733 69.3312 109.733C79.7872 109.733 83.8865 103.442 84.0053 103.145C84.243 102.789 84.7777 102.671 85.1341 102.908C85.4906 103.145 85.6094 103.62 85.4312 104.036C85.2529 104.273 80.7972 111.335 69.3312 111.335Z" fill="#231F20"/>
<path d="M50.2607 102.789C50.3795 102.552 50.4983 102.374 50.6766 102.196C50.6172 102.255 50.6172 102.315 50.5578 102.315C50.7954 101.958 51.0924 101.721 51.4489 101.424C51.3895 101.484 51.3301 101.484 51.3301 101.543C51.6271 101.306 51.9242 101.128 52.2212 101.009C52.34 100.95 52.5183 100.771 52.5183 100.593C52.5777 100.415 52.5183 100.237 52.4589 100.059C52.34 99.9406 52.2212 99.7626 52.043 99.7626C51.8648 99.7032 51.6865 99.7626 51.5083 99.8219C50.4983 100.297 49.6072 101.128 49.0725 102.077C48.8943 102.374 49.0131 102.849 49.3101 103.027C49.6666 103.205 50.0825 103.145 50.2607 102.789Z" fill="#231F20"/>
<path d="M84.8368 101.306C84.9556 101.365 85.0744 101.365 85.1932 101.424C85.1932 101.424 85.2526 101.424 85.2526 101.484C85.3714 101.543 85.1338 101.424 85.2526 101.484C85.312 101.484 85.3714 101.543 85.4309 101.543C85.6685 101.662 85.8467 101.78 86.0844 101.899C86.2032 101.958 86.2626 102.018 86.3814 102.077L86.4408 102.137C86.4408 102.137 86.322 102.077 86.3814 102.077C86.4408 102.137 86.5002 102.137 86.5002 102.196C86.6785 102.374 86.8567 102.552 87.0349 102.73C87.2726 102.967 87.7478 102.967 87.9855 102.73C88.2231 102.433 88.2231 102.077 87.9855 101.78C87.2131 100.95 86.2032 100.297 85.1338 99.9407C84.7773 99.822 84.3615 100.059 84.3021 100.415C84.2427 100.831 84.4803 101.187 84.8368 101.306Z" fill="#231F20"/>
<path d="M44.4385 69.911C44.1414 70.1483 43.9038 70.4451 43.9038 70.8012C43.9038 71.2166 44.3197 71.5133 44.7355 71.5727C45.1514 71.632 45.5673 71.454 45.9831 71.3353C46.9931 71.0385 48.0031 70.7418 49.0724 70.7418C49.6071 70.7418 50.1418 70.7418 50.6765 70.6825C51.2112 70.6231 52.1023 70.5638 52.1023 70.0296C52.1023 68.4273 46.6367 68.1305 44.4385 69.911Z" fill="#231F20"/>
<path d="M93.8671 69.8516C94.1642 70.0297 94.4612 70.3264 94.4612 70.6825C94.4612 71.0979 94.1047 71.454 93.6889 71.5133C93.273 71.5727 92.8571 71.5133 92.4413 71.3946C91.4313 71.1573 90.3619 70.9792 89.352 71.0386C88.8173 71.0979 88.2826 71.1573 87.7479 71.1573C87.2132 71.1573 86.3221 71.1573 86.2627 70.6231C86.1439 69.0801 91.5501 68.2493 93.8671 69.8516Z" fill="#231F20"/>
<path d="M46.5178 289.555C46.5178 289.555 29.7049 296.676 30.2395 298.813C30.7742 300.949 53.944 299.881 54.8945 297.804C55.9045 295.668 52.1617 288.427 52.1617 288.427L46.5178 289.555Z" fill="#231F20"/>
<path d="M126.78 289.317C126.78 289.317 143.415 296.914 142.762 298.991C142.108 301.128 119.057 299.407 118.107 297.329C117.156 295.193 121.077 288.012 121.077 288.012L126.78 289.317Z" fill="#231F20"/>
<path d="M24.1798 161.543C24.2986 161.128 24.9521 161.009 25.3086 161.306C25.665 161.543 25.8433 162.018 25.9621 162.493C26.6156 164.748 26.9721 167.122 27.0909 169.496C27.1503 170.623 28.2197 171.335 29.1702 171.869C31.1901 172.938 33.3883 173.709 35.6459 174.125C36.3588 174.243 37.1905 174.421 37.6658 174.955C38.2005 175.49 38.0816 176.617 37.3687 176.795C38.5569 177.329 39.8045 178.042 40.3392 179.228C40.8739 180.415 40.1016 182.196 38.7946 182.136C39.8045 182.018 40.7551 183.205 40.3392 184.154C39.9828 184.985 38.9728 185.341 38.0816 185.519C32.8536 186.647 27.4473 185.697 22.5757 183.383C17.7042 181.068 10.0997 173.116 7.06984 167.418C6.35692 166.053 13.0108 166.231 14.6743 167.122C22.1599 170.979 23.4669 164.332 24.1798 161.543Z" fill="#231F20"/>
<path d="M48.9536 39.2285C48.9536 39.2285 30.6555 45.2226 29.5861 53.1157C28.6356 59.8813 44.2603 65.6973 63.509 61.365C82.6983 56.9733 89.3522 46.2908 89.3522 46.2908L48.9536 39.2285Z" fill="#FF4527"/>
<path d="M45.4482 43.0267C45.4482 43.0267 47.0523 17.9229 49.1316 13.4125C51.211 8.90208 60.063 0.0593531 71.5291 5.89894e-06C84.718 -0.0593413 96.0652 4.51039 97.6693 14.362C98.9169 22.1365 97.4911 44.6884 97.4911 44.6884C97.4911 44.6884 90.5995 49.0208 70.222 46.5875C49.8446 44.1543 49.0128 41.7804 49.0128 41.7804L45.4482 43.0267Z" fill="#FF4527"/>
<path d="M97.7291 14.54C96.125 4.68841 84.7778 0.118675 71.5889 0.178023C71.4701 0.178023 71.3512 0.178023 71.2324 0.178023C80.3815 2.07713 87.3324 7.29969 88.58 16.1424C89.5306 22.908 88.9959 39.2878 88.6394 47.181C95.1151 46.4688 97.6103 44.8664 97.6103 44.8664C97.6103 44.8664 98.9767 22.3145 97.7291 14.54Z" fill="#DB3423"/>
<path d="M74.3215 22.1365C70.9351 18.6943 66.42 22.7893 66.42 22.7893C66.42 22.7893 62.0831 18.6943 58.7561 22.1365C55.3104 25.6973 66.42 34.1246 66.42 34.1246C66.42 34.1246 77.8266 25.6973 74.3215 22.1365Z" fill="white"/>
<path opacity="0.44" d="M55.7265 8.546C55.1918 9.19882 54.7165 9.91098 54.5977 10.7418C54.4789 11.5727 54.776 12.4629 55.4889 12.8783C56.2612 13.2938 57.2117 12.997 57.8653 12.4629C58.5188 11.9288 58.994 11.2166 59.5287 10.5638C60.8951 8.84273 62.8557 7.65579 64.935 7.12167C66.3608 6.76558 67.9055 6.70624 69.2719 6.11277C69.6878 5.93472 70.1036 5.63799 70.2225 5.22256C70.4601 4.09496 68.1431 2.96736 67.252 2.72998C65.8855 2.37389 64.4003 2.84867 63.1527 3.32345C60.3011 4.33235 57.6276 6.17211 55.7265 8.546Z" fill="white"/>
<path opacity="0.44" d="M51.4489 16.4392C50.9142 17.2107 50.7954 18.1009 50.7954 19.0504C50.7954 20.1187 51.1519 21.365 52.1618 21.543C52.6371 21.6617 53.1718 21.4243 53.5877 21.1276C54.5976 20.4748 55.2511 19.2878 55.3105 18.1009C55.37 15.905 52.9342 14.3027 51.4489 16.4392Z" fill="white"/>
<path d="M58.1028 46.2908C58.0433 46.3501 70.5194 49.0207 80.7972 48.1305C91.0157 47.2403 94.8773 45.9347 94.8773 45.9347L94.5802 41.721C94.5802 41.721 90.9563 45.5786 78.3614 46.0534C65.6478 46.5282 58.1028 46.2908 58.1028 46.2908Z" fill="#DB3423"/>
</g>
<defs>
<clipPath id="clip0">
<rect width="161" height="300" fill="white"/>
</clipPath>
</defs>
</svg>
