<svg width="29" height="30" viewBox="0 0 29 30" fill="none" xmlns="http://www.w3.org/2000/svg">
<path d="M17.7117 6.16667C18.9733 6.41281 20.1328 7.02983 21.0417 7.93875C21.9507 8.84767 22.5677 10.0071 22.8138 11.2687L17.7117 6.16667ZM17.7117 1C20.3329 1.29119 22.7771 2.46498 24.6431 4.32863C26.5091 6.19229 27.686 8.63505 27.9805 11.2558L17.7117 1ZM26.6888 21.5633V25.4383C26.6903 25.7981 26.6166 26.1541 26.4725 26.4837C26.3284 26.8133 26.117 27.1092 25.8519 27.3524C25.5868 27.5956 25.2739 27.7807 24.9331 27.896C24.5923 28.0112 24.2313 28.054 23.873 28.0217C19.8983 27.5898 16.0804 26.2316 12.7259 24.0562C9.60501 22.0731 6.95904 19.4271 4.9759 16.3063C2.79296 12.9366 1.43446 9.10003 1.01048 5.1075C0.978206 4.75031 1.02066 4.39032 1.13513 4.05043C1.2496 3.71055 1.4336 3.39822 1.67539 3.13334C1.91718 2.86846 2.21148 2.65683 2.53955 2.51192C2.86761 2.36702 3.22226 2.292 3.5809 2.29167H7.4559C8.08275 2.2855 8.69046 2.50748 9.16576 2.91623C9.64105 3.32498 9.9515 3.89262 10.0392 4.51333C10.2028 5.75342 10.5061 6.97102 10.9434 8.14292C11.1172 8.60523 11.1548 9.10768 11.0518 9.59072C10.9488 10.0738 10.7094 10.5171 10.3621 10.8683L8.72173 12.5087C10.5605 15.7425 13.238 18.42 16.4717 20.2587L18.1121 18.6183C18.4633 18.2711 18.9067 18.0317 19.3898 17.9287C19.8728 17.8257 20.3752 17.8633 20.8376 18.0371C22.0095 18.4744 23.2271 18.7777 24.4671 18.9412C25.0946 19.0298 25.6676 19.3458 26.0773 19.8293C26.4869 20.3127 26.7045 20.9299 26.6888 21.5633Z" stroke="white" stroke-width="2" stroke-linecap="round" stroke-linejoin="round"/>
</svg>
